# xmcd
#
# Track frame offsets:
#	150
#	19275
#	38455
#	61982
#	83090
#	101325
#	124677
#	143475
#	164175
#	185952
#	205260
#	227907
#	251182
#	275325
#	297050
#	316230
#
# Disc length: 4504 seconds
#
# Revision: 1
# Processed by: cddbd v1.5.1PL0 Copyright (c) Steve Scherf et al.
# Submitted via: CDex 1.50Beta5
#
DISCID=e5119610
DTITLE=藤あや子 - 藤あや子最新ヒット全曲集
DYEAR=1992
DGENRE=World
TTITLE0=藤あや子/こころ酒
TTITLE1=藤あや子/恋雨
TTITLE2=藤あや子/みちのく挽歌
TTITLE3=藤あや子/酒場ひとり
TTITLE4=藤あや子/涙の夜汽車
TTITLE5=藤あや子/路地あかり
TTITLE6=藤あや子/雨夜酒
TTITLE7=藤あや子/おんな
TTITLE8=藤あや子/ながれ花
TTITLE9=藤あや子/裏町酒場
TTITLE10=藤あや子/雨の大阪
TTITLE11=藤あや子/母子草
TTITLE12=藤あや子/夕映えの宿
TTITLE13=藤あや子/北列車
TTITLE14=恋雨
TTITLE15=ながれ花
EXTD=
EXTT0=
EXTT1=
EXTT2=
EXTT3=
EXTT4=
EXTT5=
EXTT6=
EXTT7=
EXTT8=
EXTT9=
EXTT10=
EXTT11=
EXTT12=
EXTT13=
EXTT14=
EXTT15=
PLAYORDER=
